P3
3 30
255
255 0 0
0 255 0
0 0 255
255 0 0
0 255 0
0 0 255
255 0 0
0 255 0
0 0 255
255 0 0
0 255 0
0 0 255
255 0 0
0 255 0
0 0 255
255 0 0
0 255 0
0 0 255
255 0 0
0 255 0
0 0 255
255 0 0
0 255 0
0 0 255
255 0 0
0 255 0
0 0 255
255 0 0
0 255 0
0 0 255
255 0 0
0 255 0
0 0 255
255 0 0
0 255 0
0 0 255
255 0 0
0 255 0
0 0 255
255 0 0
0 255 0
0 0 255
255 0 0
0 255 0
0 0 255
255 0 0
0 255 0
0 0 255
255 0 0
0 255 0
0 0 255
255 0 0
0 255 0
0 0 255
255 0 0
0 255 0
0 0 255
255 0 0
0 255 0
0 0 255
255 0 0
0 255 0
0 0 255
255 0 0
0 255 0
0 0 255
255 0 0
0 255 0
0 0 255
255 0 0
0 255 0
0 0 255
255 0 0
0 255 0
0 0 255
255 0 0
0 255 0
0 0 255
255 0 0
0 255 0
0 0 255
255 0 0
0 255 0
0 0 255
255 0 0
0 255 0
0 0 255
255 0 0
0 255 0
0 0 255
